<svg xmlns="http://www.w3.org/2000/svg">
<g transform="translate(0,0)">
<path d="M40,120 C0.000000000000004898587,80,0.000000000000004898587,80,-120,40 M-120,40 C-80,0.000000000000009797174,-80,0.000000000000009797174,-40,-120 M-40,-120 C-0.00000000000001469576,-80,-0.00000000000001469576,-80,120,-40 M120,-40 C80,-0.000000000000019594349,80,-0.000000000000019594349,40,120" fill="black" stroke="none"/>
<path d="M20,60 C0.0000000000000024492936,40,0.0000000000000024492936,40,-60,20 M-60,20 C-40,0.000000000000004898587,-40,0.000000000000004898587,-20,-60 M-20,-60 C-0.00000000000000734788,-40,-0.00000000000000734788,-40,60,-20 M60,-20 C40,-0.000000000000009797174,40,-0.000000000000009797174,20,60" fill="white" stroke="none"/>
</g>
</svg>